<?xml version="1.0" standalone="no"?><!DOCTYPE svg PUBLIC "-//W3C//DTD SVG 1.1//EN" "http://www.w3.org/Graphics/SVG/1.1/DTD/svg11.dtd"><svg t="1642598567324" class="icon" viewBox="0 0 1024 1024" version="1.1" xmlns="http://www.w3.org/2000/svg" p-id="6273" xmlns:xlink="http://www.w3.org/1999/xlink" width="32" height="32"><defs><style type="text/css"></style></defs><path d="M802.1 886.5c0 18.6-16.6 33.7-37.1 33.7H261c-20.5 0-37.1-15.1-37.1-33.7V139.9c0-18.6 16.6-33.7 37.1-33.7h504c20.5 0 37.1 15.1 37.1 33.7v746.6z" fill="#FFFFFF" p-id="6274"></path><path d="M765 928.2H261c-24.9 0-45.1-18.7-45.1-41.7V139.9c0-23 20.2-41.7 45.1-41.7h504c24.9 0 45.1 18.7 45.1 41.7v746.6c0 23-20.3 41.7-45.1 41.7z m-504.1-814c-16 0-29.1 11.5-29.1 25.7v746.6c0 14.2 13 25.7 29.1 25.7h504c16 0 29.1-11.5 29.1-25.7V139.9c0-14.2-13-25.7-29.1-25.7h-504z" fill="#282828" p-id="6275"></path><path d="M765.5 860.7c0 16.5-14.8 29.9-33 29.9h-448c-18.2 0-33-13.4-33-29.9V197.1c0-16.5 14.8-29.9 33-29.9h448c18.2 0 33 13.4 33 29.9v663.6z" fill="#50BCFF" p-id="6276"></path><path d="M744.5 285.7c0 17.7-14.3 32-32 32H313.4c-17.7 0-32-14.3-32-32v-98.1c0-17.7 14.3-32 32-32h399.1c17.7 0 32 14.3 32 32v98.1z" fill="#1A6DFF" p-id="6277"></path><path d="M712.5 325.7H313.4c-22.1 0-40-18-40-40v-98.1c0-22.1 18-40 40-40h399.1c22.1 0 40 18 40 40v98.1c0 22.1-17.9 40-40 40zM313.4 163.6c-13.2 0-24 10.8-24 24v98.1c0 13.2 10.8 24 24 24h399.1c13.2 0 24-10.8 24-24v-98.1c0-13.2-10.8-24-24-24H313.4z" fill="#282828" p-id="6278"></path><path d="M482.9 529.3c0 19.9-16.2 36.1-36.1 36.1H317.4c-19.9 0-36.1-16.2-36.1-36.1V399.9c0-19.9 16.2-36.1 36.1-36.1h129.4c19.9 0 36.1 16.2 36.1 36.1v129.4z" fill="#FFFFFF" p-id="6279"></path><path d="M446.8 573.3H317.4c-24.3 0-44.1-19.8-44.1-44.1V399.9c0-24.3 19.8-44.1 44.1-44.1h129.4c24.3 0 44.1 19.8 44.1 44.1v129.4c0 24.3-19.7 44-44.1 44zM317.4 371.8c-15.5 0-28.1 12.6-28.1 28.1v129.4c0 15.5 12.6 28.1 28.1 28.1h129.4c15.5 0 28.1-12.6 28.1-28.1V399.9c0-15.5-12.6-28.1-28.1-28.1H317.4z" fill="#282828" p-id="6280"></path><path d="M482.9 781.5c0 19.9-16.2 36.1-36.1 36.1H317.4c-19.9 0-36.1-16.2-36.1-36.1V652.1c0-19.9 16.2-36.1 36.1-36.1h129.4c19.9 0 36.1 16.2 36.1 36.1v129.4z" fill="#FFFFFF" p-id="6281"></path><path d="M446.8 825.6H317.4c-24.3 0-44.1-19.8-44.1-44.1V652.1c0-24.3 19.8-44.1 44.1-44.1h129.4c24.3 0 44.1 19.8 44.1 44.1v129.4c0 24.3-19.7 44.1-44.1 44.1zM317.4 624c-15.5 0-28.1 12.6-28.1 28.1v129.4c0 15.5 12.6 28.1 28.1 28.1h129.4c15.5 0 28.1-12.6 28.1-28.1V652.1c0-15.5-12.6-28.1-28.1-28.1H317.4z" fill="#282828" p-id="6282"></path><path d="M744.5 529.3c0 19.9-16.2 36.1-36.1 36.1H579c-19.9 0-36.1-16.2-36.1-36.1V399.9c0-19.9 16.2-36.1 36.1-36.1h129.4c19.9 0 36.1 16.2 36.1 36.1v129.4z" fill="#FFFFFF" p-id="6283"></path><path d="M708.4 573.3H579c-24.3 0-44.1-19.8-44.1-44.1V399.9c0-24.3 19.8-44.1 44.1-44.1h129.4c24.3 0 44.1 19.8 44.1 44.1v129.4c0 24.3-19.7 44-44.1 44zM579 371.8c-15.5 0-28.1 12.6-28.1 28.1v129.4c0 15.5 12.6 28.1 28.1 28.1h129.4c15.5 0 28.1-12.6 28.1-28.1V399.9c0-15.5-12.6-28.1-28.1-28.1H579z" fill="#282828" p-id="6284"></path><path d="M585.1 472.9c-4.5 0-8.2-3.7-8.2-8.3 0-4.6 3.7-8.3 8.2-8.3h117.2c4.5 0 8.2 3.7 8.2 8.3 0 4.6-3.7 8.3-8.2 8.3H585.1z" fill="#282828" p-id="6285"></path><path d="M323.5 472.9c-4.5 0-8.2-3.7-8.2-8.3 0-4.6 3.7-8.3 8.2-8.3h117.2c4.5 0 8.2 3.7 8.2 8.3 0 4.6-3.7 8.3-8.2 8.3H323.5z" fill="#282828" p-id="6286"></path><path d="M373.8 406c0-4.5 3.7-8.2 8.3-8.2 4.6 0 8.3 3.7 8.3 8.2v117.2c0 4.5-3.7 8.2-8.3 8.2-4.6 0-8.3-3.7-8.3-8.2V406z" fill="#282828" p-id="6287"></path><path d="M334.8 681.2c-3.2-3.2-3.2-8.4 0.1-11.7 3.3-3.3 8.5-3.3 11.7-0.1l82.9 82.9c3.2 3.2 3.2 8.5-0.1 11.7-3.3 3.3-8.5 3.3-11.7 0.1l-82.9-82.9z" fill="#282828" p-id="6288"></path><path d="M417.7 669.4c3.2-3.2 8.4-3.2 11.7 0.1 3.3 3.3 3.3 8.5 0.1 11.7l-82.9 82.9c-3.2 3.2-8.5 3.2-11.7-0.1-3.3-3.3-3.3-8.5-0.1-11.7l82.9-82.9z" fill="#282828" p-id="6289"></path><path d="M744.5 781.5c0 19.9-16.2 36.1-36.1 36.1H579c-19.9 0-36.1-16.2-36.1-36.1V652.1c0-19.9 16.2-36.1 36.1-36.1h129.4c19.9 0 36.1 16.2 36.1 36.1v129.4z" fill="#FFFFFF" p-id="6290"></path><path d="M708.4 825.6H579c-24.3 0-44.1-19.8-44.1-44.1V652.1c0-24.3 19.8-44.1 44.1-44.1h129.4c24.3 0 44.1 19.8 44.1 44.1v129.4c0 24.3-19.7 44.1-44.1 44.1zM579 624c-15.5 0-28.1 12.6-28.1 28.1v129.4c0 15.5 12.6 28.1 28.1 28.1h129.4c15.5 0 28.1-12.6 28.1-28.1V652.1c0-15.5-12.6-28.1-28.1-28.1H579z" fill="#282828" p-id="6291"></path><path d="M585.1 698.7c-4.5 0-8.2-3.7-8.2-8.3 0-4.6 3.7-8.3 8.2-8.3h117.2c4.5 0 8.2 3.7 8.2 8.3 0 4.6-3.7 8.3-8.2 8.3H585.1z" fill="#282828" p-id="6292"></path><path d="M585.1 751.4c-4.5 0-8.2-3.7-8.2-8.3 0-4.6 3.7-8.3 8.2-8.3h117.2c4.5 0 8.2 3.7 8.2 8.3 0 4.6-3.7 8.3-8.2 8.3H585.1z" fill="#282828" p-id="6293"></path></svg>